<svg xmlns="http://www.w3.org/2000/svg" version="1.1" xmlns:xlink="http://www.w3.org/1999/xlink" xmlns:svgjs="http://svgjs.dev/svgjs" width="1000" height="1000" viewBox="0 0 1000 1000"><rect width="1000" height="1000" fill="#ffffff"></rect><g transform="matrix(0.7,0,0,0.7,149.57575757575756,282.1265587044535)"><svg viewBox="0 0 396 247" data-background-color="#ffffff" preserveAspectRatio="xMidYMid meet" height="623" width="1000" xmlns="http://www.w3.org/2000/svg" xmlns:xlink="http://www.w3.org/1999/xlink"><g id="tight-bounds" transform="matrix(1,0,0,1,0.2400000000000091,-0.09999999999999432)"><svg viewBox="0 0 395.52 247.2" height="247.2" width="395.52"><g><svg></svg></g><g><svg viewBox="0 0 395.52 247.2" height="247.2" width="395.52"><g transform="matrix(1,0,0,1,110.5290223238974,47.215199999999996)"><svg viewBox="0 0 174.4619553522052 152.7696" height="152.7696" width="174.4619553522052"><g><svg viewBox="0 0 174.4619553522052 152.7696" height="152.7696" width="174.4619553522052"><g><svg viewBox="0 0 234.95262823312342 205.73894727742015" height="152.7696" width="174.4619553522052"><g><svg viewBox="0 0 234.95262823312342 205.73894727742015" height="205.73894727742015" width="234.95262823312342"><g><svg viewBox="0 0 234.95262823312342 205.73894727742015" height="205.73894727742015" width="234.95262823312342"><g><svg viewBox="0 0 234.95262823312342 151.825483872" height="151.825483872" width="234.95262823312342"><g transform="matrix(1,0,0,1,0,0)"><svg width="234.95262823312342" viewBox="4.35 -35.25 54.55 35.25" height="151.825483872" data-palette-color="#b70303"><path d="M4.35 0L4.35-35.25 18.3-35.25Q23.85-35.25 26.93-32.55 30-29.85 30-24.9L30-24.9Q30-19.95 26.9-17.2 23.8-14.45 18.3-14.45L18.3-14.45 8.45-14.45 8.45 0 4.35 0ZM8.45-17.85L17.9-17.85Q25.95-17.85 25.95-24.9L25.95-24.9Q25.95-31.85 17.9-31.85L17.9-31.85 8.45-31.85 8.45-17.85ZM58.4-32.25L38.2-3.45 58.9-3.45 58.9 0 33.5 0 33.5-3.05 53.65-31.8 33.5-31.8 33.5-35.25 58.4-35.25 58.4-32.25Z" opacity="1" transform="matrix(1,0,0,1,0,0)" fill="#b70303" class="undefined-text-0" data-fill-palette-color="primary" id="text-0"></path></svg></g></svg></g><g transform="matrix(1,0,0,1,0,187.66783680256628)"><svg viewBox="0 0 234.95262823312342 18.071110474853864" height="18.071110474853864" width="234.95262823312342"><g transform="matrix(1,0,0,1,0,0)"><svg width="234.95262823312342" viewBox="2.2 -31.55 416.66 32.05" height="18.071110474853864" data-palette-color="#ff5858"><path d="M12.9-10.15L12.9-10.15 10.6-10.15 10.6 0 2.2 0 2.2-31.05 12.35-31.05Q17.7-31.05 20.3-28.6 22.9-26.15 22.9-20.55 22.9-14.95 20.45-12.55 18-10.15 12.9-10.15ZM13.85-16.9Q14.3-17.75 14.3-19.95 14.3-22.15 13.8-23.05 13.3-23.95 11.8-23.95L11.8-23.95 10.6-23.95 10.6-16.05 12-16.05Q13.4-16.05 13.85-16.9ZM46.65-21.2L46.65-21.2Q46.65-18.4 45.8-16.55 44.95-14.7 43.15-13.2L43.15-13.2 47.3 0 38.05 0 34.95-11.2 33.8-11.2 33.8 0 25.4 0 25.4-31.05 37-31.05Q42-31.05 44.32-28.7 46.65-26.35 46.65-21.2ZM35.1-16.45Q36.4-16.45 36.95-17.2 37.5-17.95 37.5-19.93 37.5-21.9 36.95-22.68 36.4-23.45 35.15-23.45L35.15-23.45 33.8-23.45 33.8-16.45 35.1-16.45ZM66.7-31.05L72.4 0 64.05 0 63.1-4.9 57.2-4.9 56.25 0 48.3 0 54-31.05 66.7-31.05ZM58.3-10.75L62.15-10.75 60.4-21.85 60.05-21.85 58.3-10.75ZM93.54-31.05L93.04-23.5 87.24-23.5 87.24 0 78.69 0 78.69-23.5 72.54-23.5 73.04-31.05 93.54-31.05ZM118.44-31.05L118.44 0 109.94 0 109.94-11.75 104.09-11.75 104.09 0 95.49 0 95.49-31.05 104.09-31.05 104.09-18.85 109.94-18.85 109.94-31.05 118.44-31.05ZM139.24-31.05L144.94 0 136.59 0 135.64-4.9 129.74-4.9 128.79 0 120.84 0 126.54-31.05 139.24-31.05ZM130.84-10.75L134.69-10.75 132.94-21.85 132.59-21.85 130.84-10.75ZM176.54-31.05L177.59 0 169.74 0 169.74-16.2 169.29-16.2 166.34 0 158.29 0 155.49-16.2 154.99-16.2 154.99 0 147.24 0 148.29-31.05 159.54-31.05 162.34-14.25 162.74-14.25 165.44-31.05 176.54-31.05ZM198.98-7L198.48 0 181.68 0 181.68-31.05 198.98-31.05 198.48-23.4 190.23-23.4 190.23-18.75 197.38-18.75 197.38-12.15 190.23-12.15 190.23-7 198.98-7ZM200.48-21.7Q200.48-26.15 203.08-28.85 205.68-31.55 210.21-31.55 214.73-31.55 219.48-30.65L219.48-30.65 218.48-22.65Q213.53-23.8 211.68-23.8L211.68-23.8Q209.33-23.8 209.33-21.9L209.33-21.9Q209.33-21.15 210.46-20.45 211.58-19.75 213.18-18.98 214.78-18.2 216.38-17.13 217.98-16.05 219.11-14.05 220.23-12.05 220.23-9.45L220.23-9.45Q220.23-4.7 217.68-2.1 215.13 0.5 210.46 0.5 205.78 0.5 201.33-0.95L201.33-0.95 201.88-8.4Q207.23-6.85 209.33-6.85 211.43-6.85 211.43-8.7L211.43-8.7Q211.43-9.65 210.31-10.45 209.18-11.25 207.58-12.05 205.98-12.85 204.36-13.9 202.73-14.95 201.61-16.95 200.48-18.95 200.48-21.7L200.48-21.7ZM246.18-31.05L246.18 0 237.68 0 237.68-11.75 231.83-11.75 231.83 0 223.23 0 223.23-31.05 231.83-31.05 231.83-18.85 237.68-18.85 237.68-31.05 246.18-31.05ZM280.77-7.15L280.77 0 260.37 0 260.17-4.6 269.32-23.3 259.67-23.3 259.17-31.05 280.27-31.05 280.52-26.15 271.82-7.15 280.77-7.15ZM292.47-31.05L292.47 0 283.97 0 283.97-31.05 292.47-31.05ZM320.02-31.05L320.02 0 311.82 0 305.37-14.45 304.97-14.45 304.97 0 297.37 0 297.37-31.05 305.82-31.05 311.97-16.15 312.37-16.15 312.37-31.05 320.02-31.05ZM344.47-29.95L343.12-21.8Q338.32-23.25 336.09-23.25 333.87-23.25 333.04-21.3 332.22-19.35 332.22-15.13 332.22-10.9 332.99-8.97 333.77-7.05 336.17-7.05L336.17-7.05Q336.87-7.05 338.87-7.45L338.87-7.45 338.87-11.25 336.62-11.25 336.62-17.15 346.17-17.15 346.17 0 340.27 0 339.47-1.6 339.27-1.6Q338.42-0.9 337.92-0.55L337.92-0.55Q336.52 0.5 333.97 0.5L333.97 0.5Q323.52 0.5 323.52-15.3L323.52-15.3Q323.52-23.2 326.27-27.38 329.02-31.55 335.52-31.55L335.52-31.55Q340.72-31.55 344.47-29.95L344.47-29.95ZM366.96-31.05L372.66 0 364.31 0 363.36-4.9 357.46-4.9 356.51 0 348.56 0 354.26-31.05 366.96-31.05ZM358.56-10.75L362.41-10.75 360.66-21.85 360.31-21.85 358.56-10.75ZM398.36-16.2L398.36-16.2Q398.36 0 385.56 0L385.56 0 375.26 0 375.26-31.05 385.76-31.05Q392.61-31.05 395.49-27.23 398.36-23.4 398.36-16.2ZM385.41-7.2Q388.06-7.2 388.84-9.08 389.61-10.95 389.61-15.38 389.61-19.8 388.79-21.65 387.96-23.5 385.26-23.5L385.26-23.5 383.76-23.5 383.76-7.2 385.41-7.2ZM418.86-7L418.36 0 401.56 0 401.56-31.05 418.86-31.05 418.36-23.4 410.11-23.4 410.11-18.75 417.26-18.75 417.26-12.15 410.11-12.15 410.11-7 418.86-7Z" opacity="1" transform="matrix(1,0,0,1,0,0)" fill="#ff5858" class="undefined-text-1" data-fill-palette-color="secondary" id="text-1"></path></svg></g></svg></g></svg></g></svg></g></svg></g></svg></g></svg></g><g><path d="M210.831 0c32.949 0 62.886 12.892 85.043 33.908l-7.57 0c-20.775-17.961-47.855-28.825-77.473-28.825-29.618 0-56.698 10.864-77.473 28.825l-7.57 0c22.157-21.015 52.095-33.908 85.043-33.908zM334.431 123.6c0 28.67-9.761 55.06-26.142 76.028v-8.569c13.278-19.147 21.059-42.394 21.059-67.459 0-25.065-7.781-48.312-21.059-67.459v-8.569c16.381 20.968 26.142 47.358 26.142 76.028zM210.831 247.2c-32.949 0-62.886-12.892-85.043-33.908l7.57 0c20.775 17.961 47.855 28.825 77.473 28.825 29.618 0 56.698-10.864 77.473-28.825l7.57 0c-22.157 21.015-52.095 33.908-85.043 33.908z" fill="#ff5858" stroke="transparent" data-fill-palette-color="tertiary"></path></g></svg></g><defs></defs></svg><rect width="308" height="304" fill="none" stroke="none" visibility="hidden"></rect></g></svg></g></svg>