<svg xmlns="http://www.w3.org/2000/svg" version="1.1" xmlns:xlink="http://www.w3.org/1999/xlink" xmlns:svgjs="http://svgjs.dev/svgjs" width="1000" height="999" viewBox="0 0 1000 999"><g transform="matrix(1,0,0,1,-0.215743440233382,-0.21552769679306039)"><svg viewBox="0 0 343 343" data-background-color="#ffffff" preserveAspectRatio="xMidYMid meet" height="999" width="1000" xmlns="http://www.w3.org/2000/svg" xmlns:xlink="http://www.w3.org/1999/xlink"><g id="tight-bounds" transform="matrix(1,0,0,1,0.0740000000000407,0.07400000000001228)"><svg viewBox="0 0 342.85155851775386 342.85155851775386" height="342.85155851775386" width="342.85155851775386"><g><svg></svg></g><g><svg viewBox="0 0 342.85155851775386 342.85155851775386" height="342.85155851775386" width="342.85155851775386"><g><path d="M0 171.426c0-94.676 76.75-171.426 171.426-171.426 94.676 0 171.426 76.75 171.426 171.426 0 94.676-76.75 171.426-171.426 171.426-94.676 0-171.426-76.75-171.426-171.426zM171.426 331.928c88.643 0 160.502-71.859 160.502-160.502 0-88.643-71.859-160.502-160.502-160.502-88.643 0-160.502 71.859-160.502 160.502 0 88.643 71.859 160.502 160.502 160.502z" data-fill-palette-color="tertiary" fill="#915eff" stroke="transparent"></path><ellipse rx="164.56874808852186" ry="164.56874808852186" cx="171.42577925887693" cy="171.42577925887693" fill="#915eff" stroke="transparent" stroke-width="0" fill-opacity="1" data-fill-palette-color="tertiary"></ellipse></g><g transform="matrix(1,0,0,1,64.84655864529837,110.85984489283388)"><svg viewBox="0 0 213.1584412271571 121.13186873208612" height="121.13186873208612" width="213.1584412271571"><g><svg viewBox="0 0 213.1584412271571 121.13186873208612" height="121.13186873208612" width="213.1584412271571"><g><svg viewBox="0 0 213.1584412271571 121.13186873208612" height="121.13186873208612" width="213.1584412271571"><g><svg viewBox="0 0 213.1584412271571 121.13186873208612" height="121.13186873208612" width="213.1584412271571"><g><svg viewBox="0 0 213.1584412271571 121.13186873208612" height="121.13186873208612" width="213.1584412271571"><g><svg viewBox="0 0 213.1584412271571 121.13186873208612" height="121.13186873208612" width="213.1584412271571"><g transform="matrix(1,0,0,1,0,0)"><svg width="213.1584412271571" viewBox="0.95 -36 63.349999999999994 36" height="121.13186873208612" data-palette-color="#303033"><path d="M17.85-10.95L17.85-10.95 11.9-10.95 9.95 0 0.95 0 7.3-36 22.55-36Q28.2-36 30.6-33.4L30.6-33.4Q32.35-31.4 32.35-28.3L32.35-28.3Q32.35-27.25 32.15-26.1L32.15-26.1 31.15-20.45Q30.4-16.3 26.75-13.63 23.1-10.95 17.85-10.95ZM19.4-28.2L19.4-28.2 14.9-28.2 13.25-18.75 17.7-18.75Q21.8-18.75 22.45-22.4L22.45-22.4 22.8-24.45Q22.9-24.9 22.9-25.65 22.9-26.4 22.15-27.3 21.4-28.2 19.4-28.2ZM59.3-7.8L57.9 0 31.55 0 32.95-7.8 33-7.8 52.35-28.2 36.5-28.2 37.9-36 64.3-36 62.9-28.2 43.55-7.8 59.3-7.8Z" opacity="1" transform="matrix(1,0,0,1,0,0)" fill="#303033" class="undefined-text-0" data-fill-palette-color="quaternary" id="text-0"></path></svg></g></svg></g></svg></g></svg></g><g></g></svg></g></svg></g></svg></g></svg></g><defs></defs></svg><rect width="342.85155851775386" height="342.85155851775386" fill="none" stroke="none" visibility="hidden"></rect></g></svg></g></svg>